
<svg version="1.0" xmlns="http://www.w3.org/2000/svg"
 width="512.000000pt" height="512.000000pt" viewBox="0 0 512.000000 512.000000"
 preserveAspectRatio="xMidYMid meet">

<g transform="translate(0.000000,512.000000) scale(0.100000,-0.100000)"
fill="white" stroke="none">
<path d="M2490 5102 c-25 -14 -276 -329 -922 -1157 -487 -625 -889 -1147 -892
-1159 -19 -72 7 -144 67 -184 l41 -27 593 -3 593 -3 0 -1228 0 -1228 23 -33
c12 -18 35 -43 50 -54 28 -21 37 -21 517 -21 478 0 489 0 516 21 15 11 37 33
48 48 21 27 21 35 26 1264 l5 1237 600 5 600 5 31 22 c45 32 67 85 62 144 -6
59 87 -65 -975 1298 -439 563 -810 1033 -825 1044 -38 29 -114 33 -158 9z"/>
</g>
</svg>
